<?xml version="1.0" encoding="UTF-8" standalone="no"?>
<!DOCTYPE svg PUBLIC "-//W3C//DTD SVG 1.1//EN"
 "http://www.w3.org/Graphics/SVG/1.1/DTD/svg11.dtd">
<!-- Generated by graphviz version 2.40.1 (20161225.0304)
 -->
<!-- Title: G Pages: 1 -->
<svg width="329pt" height="473pt"
 viewBox="0.00 0.00 328.77 473.00" xmlns="http://www.w3.org/2000/svg" xmlns:xlink="http://www.w3.org/1999/xlink">
<g id="graph0" class="graph" transform="scale(1 1) rotate(0) translate(4 469)">
<title>G</title>
<polygon fill="#ffffff" stroke="transparent" points="-4,4 -4,-469 324.7726,-469 324.7726,4 -4,4"/>
<g id="clust1" class="cluster">
<title>cluster_Global</title>
<path fill="none" stroke="#c0c0c0" d="M200.3575,-8C200.3575,-8 300.7726,-8 300.7726,-8 306.7726,-8 312.7726,-14 312.7726,-20 312.7726,-20 312.7726,-445 312.7726,-445 312.7726,-451 306.7726,-457 300.7726,-457 300.7726,-457 200.3575,-457 200.3575,-457 194.3575,-457 188.3575,-451 188.3575,-445 188.3575,-445 188.3575,-20 188.3575,-20 188.3575,-14 194.3575,-8 200.3575,-8"/>
<text text-anchor="middle" x="250.5651" y="-444.2" font-family="Times,serif" font-size="11.00" fill="#c0c0c0">Global</text>
</g>
<!-- \\Search -->
<g id="node1" class="node">
<title>\\Search</title>
<polygon fill="none" stroke="#000000" points="278.1729,-430 222.9572,-430 222.9572,-394 278.1729,-394 278.1729,-430"/>
<text text-anchor="middle" x="250.5651" y="-408.7" font-family="Courier,monospace" font-size="11.00" fill="#000000">Search</text>
</g>
<!-- \\CI_Controller -->
<g id="node9" class="node">
<title>\\CI_Controller</title>
<ellipse fill="none" stroke="#000000" cx="62.1788" cy="-331" rx="62.3581" ry="18"/>
<text text-anchor="middle" x="62.1788" y="-326.8" font-family="Times,serif" font-size="14.00" fill="#c0c0c0">\CI_Controller</text>
</g>
<!-- \\Search&#45;&gt;\\CI_Controller -->
<g id="edge1" class="edge">
<title>\\Search&#45;&gt;\\CI_Controller</title>
<path fill="none" stroke="#000000" d="M222.768,-400.0482C192.1392,-386.8788 142.4533,-365.5154 106.4511,-350.0357"/>
<polygon fill="none" stroke="#000000" points="107.72,-346.7715 97.1506,-346.0368 104.9549,-353.2022 107.72,-346.7715"/>
</g>
<!-- \\Page -->
<g id="node2" class="node">
<title>\\Page</title>
<polygon fill="none" stroke="#000000" points="277.5651,-376 223.5651,-376 223.5651,-340 277.5651,-340 277.5651,-376"/>
<text text-anchor="middle" x="250.5651" y="-354.7" font-family="Courier,monospace" font-size="11.00" fill="#000000">Page</text>
</g>
<!-- \\Page&#45;&gt;\\CI_Controller -->
<g id="edge2" class="edge">
<title>\\Page&#45;&gt;\\CI_Controller</title>
<path fill="none" stroke="#000000" d="M223.1721,-354.074C198.2947,-350.5085 160.6094,-345.1073 127.9526,-340.4269"/>
<polygon fill="none" stroke="#000000" points="128.3943,-336.9545 117.9989,-339.0003 127.4011,-343.8837 128.3943,-336.9545"/>
</g>
<!-- \\Item_Model -->
<g id="node3" class="node">
<title>\\Item_Model</title>
<polygon fill="none" stroke="#000000" points="291.5758,-106 209.5543,-106 209.5543,-70 291.5758,-70 291.5758,-106"/>
<text text-anchor="middle" x="250.5651" y="-84.7" font-family="Courier,monospace" font-size="11.00" fill="#000000">Item_Model</text>
</g>
<!-- \\CI_Model -->
<g id="node10" class="node">
<title>\\CI_Model</title>
<ellipse fill="none" stroke="#000000" cx="62.1788" cy="-115" rx="48.8359" ry="18"/>
<text text-anchor="middle" x="62.1788" y="-110.8" font-family="Times,serif" font-size="14.00" fill="#c0c0c0">\CI_Model</text>
</g>
<!-- \\Item_Model&#45;&gt;\\CI_Model -->
<g id="edge3" class="edge">
<title>\\Item_Model&#45;&gt;\\CI_Model</title>
<path fill="none" stroke="#000000" d="M209.2229,-93.9253C182.4822,-97.7578 147.3393,-102.7946 118.1153,-106.983"/>
<polygon fill="none" stroke="#000000" points="117.4509,-103.5424 108.0487,-108.4258 118.4441,-110.4716 117.4509,-103.5424"/>
</g>
<!-- \\Welcome -->
<g id="node4" class="node">
<title>\\Welcome</title>
<polygon fill="none" stroke="#000000" points="281.7729,-322 219.3572,-322 219.3572,-286 281.7729,-286 281.7729,-322"/>
<text text-anchor="middle" x="250.5651" y="-300.7" font-family="Courier,monospace" font-size="11.00" fill="#000000">Welcome</text>
</g>
<!-- \\Welcome&#45;&gt;\\CI_Controller -->
<g id="edge4" class="edge">
<title>\\Welcome&#45;&gt;\\CI_Controller</title>
<path fill="none" stroke="#000000" d="M219.4569,-308.4585C194.6559,-312.013 159.0562,-317.1153 127.9966,-321.5668"/>
<polygon fill="none" stroke="#000000" points="127.4936,-318.1031 118.0913,-322.9865 128.4868,-325.0323 127.4936,-318.1031"/>
</g>
<!-- \\User_model -->
<g id="node5" class="node">
<title>\\User_model</title>
<polygon fill="none" stroke="#000000" points="291.5758,-214 209.5543,-214 209.5543,-178 291.5758,-178 291.5758,-214"/>
<text text-anchor="middle" x="250.5651" y="-192.7" font-family="Courier,monospace" font-size="11.00" fill="#000000">User_model</text>
</g>
<!-- \\User_model&#45;&gt;\\CI_Model -->
<g id="edge5" class="edge">
<title>\\User_model&#45;&gt;\\CI_Model</title>
<path fill="none" stroke="#000000" d="M209.2229,-178.2242C177.8131,-164.719 134.8106,-146.2293 103.4245,-132.7343"/>
<polygon fill="none" stroke="#000000" points="104.652,-129.4523 94.0826,-128.7176 101.8869,-135.8831 104.652,-129.4523"/>
</g>
<!-- \\Category_model -->
<g id="node6" class="node">
<title>\\Category_model</title>
<polygon fill="none" stroke="#000000" points="304.9809,-160 196.1492,-160 196.1492,-124 304.9809,-124 304.9809,-160"/>
<text text-anchor="middle" x="250.5651" y="-138.7" font-family="Courier,monospace" font-size="11.00" fill="#000000">Category_model</text>
</g>
<!-- \\Category_model&#45;&gt;\\CI_Model -->
<g id="edge6" class="edge">
<title>\\Category_model&#45;&gt;\\CI_Model</title>
<path fill="none" stroke="#000000" d="M196.3287,-134.2267C171.6807,-130.6941 142.552,-126.5193 117.746,-122.964"/>
<polygon fill="none" stroke="#000000" points="118.1576,-119.4873 107.7621,-121.5331 117.1644,-126.4165 118.1576,-119.4873"/>
</g>
<!-- \\Site_model -->
<g id="node7" class="node">
<title>\\Site_model</title>
<polygon fill="none" stroke="#000000" points="291.5758,-52 209.5543,-52 209.5543,-16 291.5758,-16 291.5758,-52"/>
<text text-anchor="middle" x="250.5651" y="-30.7" font-family="Courier,monospace" font-size="11.00" fill="#000000">Site_model</text>
</g>
<!-- \\Site_model&#45;&gt;\\CI_Model -->
<g id="edge7" class="edge">
<title>\\Site_model&#45;&gt;\\CI_Model</title>
<path fill="none" stroke="#000000" d="M209.2229,-51.7758C177.8131,-65.281 134.8106,-83.7707 103.4245,-97.2657"/>
<polygon fill="none" stroke="#000000" points="101.8869,-94.1169 94.0826,-101.2824 104.652,-100.5477 101.8869,-94.1169"/>
</g>
<!-- \\User -->
<g id="node8" class="node">
<title>\\User</title>
<polygon fill="none" stroke="#000000" points="277.5651,-268 223.5651,-268 223.5651,-232 277.5651,-232 277.5651,-268"/>
<text text-anchor="middle" x="250.5651" y="-246.7" font-family="Courier,monospace" font-size="11.00" fill="#000000">User</text>
</g>
<!-- \\User&#45;&gt;\\CI_Controller -->
<g id="edge8" class="edge">
<title>\\User&#45;&gt;\\CI_Controller</title>
<path fill="none" stroke="#000000" d="M223.1721,-261.7781C192.5398,-274.949 142.4883,-296.4695 106.3169,-312.022"/>
<polygon fill="none" stroke="#000000" points="104.7804,-308.8728 96.9762,-316.0382 107.5455,-315.3035 104.7804,-308.8728"/>
</g>
</g>
</svg>
